<?xml version="1.0" encoding="UTF-8"?>
<svg xmlns="http://www.w3.org/2000/svg" xmlns:xlink="http://www.w3.org/1999/xlink" width="28px" height="28px" viewBox="0 0 28 28" version="1.1">
<g id="surface1">
<path style=" stroke:none;fill-rule:nonzero;fill:rgb(100%,100%,100%);fill-opacity:1;" d="M 12.71875 2.449219 C 7.351562 3.03125 3.03125 7.351562 2.449219 12.601562 C 1.867188 18.082031 5.015625 22.984375 9.800781 24.851562 C 10.148438 24.96875 10.5 24.734375 10.5 24.265625 L 10.5 22.398438 C 10.5 22.398438 10.03125 22.515625 9.449219 22.515625 C 7.816406 22.515625 7.117188 21.117188 7 20.300781 C 6.882812 19.832031 6.648438 19.484375 6.300781 19.132812 C 5.949219 19.015625 5.832031 19.015625 5.832031 18.898438 C 5.832031 18.667969 6.183594 18.667969 6.300781 18.667969 C 7 18.667969 7.582031 19.484375 7.816406 19.832031 C 8.398438 20.765625 9.101562 21 9.449219 21 C 9.917969 21 10.265625 20.882812 10.5 20.765625 C 10.617188 19.949219 10.96875 19.132812 11.667969 18.667969 C 8.984375 18.082031 7 16.566406 7 14 C 7 12.71875 7.582031 11.433594 8.398438 10.5 C 8.28125 10.265625 8.167969 9.683594 8.167969 8.867188 C 8.167969 8.398438 8.167969 7.816406 8.398438 7.351562 C 8.398438 7.117188 8.632812 7 8.75 7 L 8.867188 7 C 9.449219 7.117188 10.617188 7.46875 11.667969 8.515625 C 12.367188 8.28125 13.183594 8.167969 14 8.167969 C 14.816406 8.167969 15.632812 8.28125 16.332031 8.515625 C 17.382812 7.46875 18.667969 7.117188 19.25 7 L 19.367188 7 C 19.601562 7 19.71875 7.117188 19.832031 7.351562 C 19.832031 7.816406 19.832031 8.398438 19.832031 8.867188 C 19.832031 9.800781 19.71875 10.265625 19.601562 10.5 C 20.417969 11.433594 21 12.601562 21 14 C 21 16.566406 19.015625 18.082031 16.332031 18.667969 C 17.03125 19.25 17.5 20.300781 17.5 21.351562 L 17.5 24.382812 C 17.5 24.734375 17.851562 25.082031 18.316406 24.96875 C 22.632812 23.21875 25.667969 19.015625 25.667969 14.117188 C 25.667969 7.117188 19.71875 1.632812 12.71875 2.449219 Z M 12.71875 2.449219 "/>
</g>
</svg>
