<?xml version="1.0" encoding="UTF-8"?>
<svg xmlns="http://www.w3.org/2000/svg" xmlns:xlink="http://www.w3.org/1999/xlink" width="28px" height="28px" viewBox="0 0 28 28" version="1.1">
<g id="surface1">
<path style=" stroke:none;fill-rule:nonzero;fill:rgb(100%,100%,100%);fill-opacity:1;" d="M 9.625 2.917969 C 5.925781 2.917969 2.917969 5.925781 2.917969 9.625 L 2.917969 18.375 C 2.917969 22.074219 5.925781 25.082031 9.625 25.082031 L 18.375 25.082031 C 22.074219 25.082031 25.082031 22.074219 25.082031 18.375 L 25.082031 9.625 C 25.082031 5.925781 22.074219 2.917969 18.375 2.917969 Z M 19.832031 7 C 20.476562 7 21 7.523438 21 8.167969 C 21 8.8125 20.476562 9.332031 19.832031 9.332031 C 19.1875 9.332031 18.667969 8.8125 18.667969 8.167969 C 18.667969 7.523438 19.1875 7 19.832031 7 Z M 14 8.167969 C 17.21875 8.167969 19.832031 10.78125 19.832031 14 C 19.832031 17.21875 17.21875 19.832031 14 19.832031 C 10.78125 19.832031 8.167969 17.21875 8.167969 14 C 8.167969 10.78125 10.78125 8.167969 14 8.167969 Z M 14 9.917969 C 11.742188 9.917969 9.917969 11.742188 9.917969 14 C 9.917969 16.257812 11.742188 18.082031 14 18.082031 C 16.257812 18.082031 18.082031 16.257812 18.082031 14 C 18.082031 11.742188 16.257812 9.917969 14 9.917969 Z M 14 9.917969 "/>
</g>
</svg>
