<?xml version="1.0" encoding="UTF-8"?>
<svg xmlns="http://www.w3.org/2000/svg" xmlns:xlink="http://www.w3.org/1999/xlink" width="28px" height="28px" viewBox="0 0 28 28" version="1.1">
<g id="surface1">
<path style=" stroke:none;fill-rule:nonzero;fill:rgb(100%,100%,100%);fill-opacity:1;" d="M 28 5.015625 C 26.953125 5.484375 25.898438 5.832031 24.734375 5.953125 C 25.898438 5.25 26.832031 4.082031 27.296875 2.796875 C 26.132812 3.5 24.964844 3.964844 23.683594 4.203125 C 22.515625 3.035156 21 2.332031 19.367188 2.332031 C 16.214844 2.332031 13.648438 4.898438 13.648438 8.046875 C 13.648438 8.515625 13.648438 8.984375 13.765625 9.332031 C 8.984375 9.101562 4.785156 6.882812 1.984375 3.382812 C 1.398438 4.203125 1.167969 5.25 1.167969 6.296875 C 1.167969 8.285156 2.214844 10.035156 3.734375 11.082031 C 2.796875 10.964844 1.867188 10.734375 1.167969 10.382812 C 1.167969 10.382812 1.167969 10.382812 1.167969 10.5 C 1.167969 13.296875 3.148438 15.632812 5.714844 16.101562 C 5.25 16.214844 4.785156 16.332031 4.203125 16.332031 C 3.851562 16.332031 3.5 16.332031 3.148438 16.214844 C 3.851562 18.546875 5.953125 20.183594 8.515625 20.183594 C 6.535156 21.703125 4.082031 22.632812 1.398438 22.632812 C 0.933594 22.632812 0.464844 22.632812 0 22.515625 C 2.566406 24.148438 5.601562 25.082031 8.75 25.082031 C 19.367188 25.082031 25.082031 16.332031 25.082031 8.75 C 25.082031 8.515625 25.082031 8.285156 25.082031 8.046875 C 26.25 7.234375 27.183594 6.183594 28 5.015625 "/>
</g>
</svg>
